<?xml version="1.0" encoding="iso-8859-1"?>
<!DOCTYPE svg PUBLIC "-//W3C//DTD SVG 1.1//EN" "http://www.w3.org/Graphics/SVG/1.1/DTD/svg11.dtd">
<svg version="1.1" id="Capa_1" xmlns="http://www.w3.org/2000/svg" xmlns:xlink="http://www.w3.org/1999/xlink" x="0px" y="0px"
     viewBox="0 0 432.49 432.49" style="enable-background:new 0 0 432.49 432.49;" xml:space="preserve">
<g>
  <path style="fill: #fff;" d="M178.568,137.364c0,20.775,16.901,37.677,37.677,37.677s37.677-16.901,37.677-37.677c0-20.774-16.901-37.677-37.677-37.677S178.568,116.59,178.568,137.364z"/>
  <path style="fill: #fff;" d="M216.245,199.041c34.009,0,61.677-27.668,61.677-61.677c0-34.009-27.668-61.677-61.677-61.677s-61.677,27.668-61.677,61.677C154.568,171.373,182.236,199.041,216.245,199.041z M253.922,137.364c0,20.775-16.901,37.677-37.677,37.677s-37.677-16.901-37.677-37.677c0-20.774,16.901-37.677,37.677-37.677S253.922,116.59,253.922,137.364z"/>
  <path style="fill: #999;" d="M225.096,370.187c-2.273,2.482-5.484,3.895-8.851,3.895c-3.366,0-6.577-1.413-8.851-3.895c-0.99-1.082-18.303-20.045-40.335-47.596l-99.61,34.143l148.482,51.069l149.109-51.108l-99.512-34.227C243.449,350.084,226.088,369.103,225.096,370.187z"/>
  <path style="fill: #ff6138;" d="M95.855,144.392c0,52.005,80.011,153.768,120.39,199.706c40.379-45.951,120.392-147.736,120.392-199.706C336.636,78.008,282.629,24,216.245,24S95.855,78.008,95.855,144.392zM216.245,75.688c34.009,0,61.677,27.668,61.677,61.677c0,34.009-27.668,61.677-61.677,61.677s-61.677-27.668-61.677-61.677C154.568,103.356,182.236,75.688,216.245,75.688z"/>
</g>
</svg>
