<?xml version="1.0" encoding="utf-8"?>
<!-- Generator: Adobe Illustrator 19.0.0, SVG Export Plug-In . SVG Version: 6.00 Build 0)  -->
<svg version="1.1" xmlns="http://www.w3.org/2000/svg" xmlns:xlink="http://www.w3.org/1999/xlink" x="0px" y="0px"
	 viewBox="-192 37.8 107.9 107.9" style="enable-background:new -192 37.8 107.9 107.9;" xml:space="preserve">
<style type="text/css">
	.st0{fill:none;stroke:#469B60;stroke-miterlimit:10;}
	.st1{fill:none;stroke:#469B60;stroke-miterlimit:10;stroke-dasharray:11.9577,3.9859;}
	.st2{opacity:0.6;fill:#F5F5F5;}
</style>
<g id="图层_1">
	<g id="XMLID_1_">
		<g id="XMLID_17_">
			<g id="XMLID_154_">
				<line id="XMLID_157_" class="st0" x1="-192" y1="145.2" x2="-186" y2="145.2"/>
				<line id="XMLID_5_" class="st1" x1="-182" y1="145.2" x2="-84.6" y2="145.2"/>
			</g>
		</g>
		<g id="XMLID_18_">
			<g id="XMLID_149_">
				<line id="XMLID_152_" class="st0" x1="-192" y1="118.4" x2="-186" y2="118.4"/>
				<line id="XMLID_4_" class="st1" x1="-182" y1="118.4" x2="-84.7" y2="118.4"/>
			</g>
		</g>
		<g id="XMLID_19_">
			<g id="XMLID_144_">
				<line id="XMLID_147_" class="st0" x1="-192" y1="91.5" x2="-186" y2="91.5"/>
				<line id="XMLID_3_" class="st1" x1="-182" y1="91.5" x2="-84.7" y2="91.5"/>
			</g>
		</g>
		<g id="XMLID_20_">
			<g id="XMLID_139_">
				<line id="XMLID_142_" class="st0" x1="-192" y1="64.7" x2="-186" y2="64.7"/>
				<line id="XMLID_2_" class="st1" x1="-182" y1="64.7" x2="-84.9" y2="64.7"/>
			</g>
		</g>
		<g id="XMLID_35_">
			<g id="XMLID_64_">
				<line id="XMLID_67_" class="st0" x1="-84.6" y1="37.8" x2="-84.6" y2="43.8"/>
				<line id="XMLID_42_" class="st1" x1="-84.6" y1="47.8" x2="-84.6" y2="145.7"/>
			</g>
		</g>
		<g id="XMLID_36_">
			<g id="XMLID_59_">
				<line id="XMLID_62_" class="st0" x1="-111.4" y1="37.8" x2="-111.4" y2="43.8"/>
				<line id="XMLID_41_" class="st1" x1="-111.4" y1="47.8" x2="-111.4" y2="144.8"/>
			</g>
		</g>
		<g id="XMLID_37_">
			<g id="XMLID_54_">
				<line id="XMLID_57_" class="st0" x1="-138.3" y1="37.8" x2="-138.3" y2="43.8"/>
				<line id="XMLID_40_" class="st1" x1="-138.3" y1="47.8" x2="-138.3" y2="145.5"/>
			</g>
		</g>
		<g id="XMLID_38_">
			<g id="XMLID_49_">
				<line id="XMLID_52_" class="st0" x1="-165.1" y1="37.8" x2="-165.1" y2="43.8"/>
				<line id="XMLID_21_" class="st1" x1="-165.1" y1="47.8" x2="-165.1" y2="145.3"/>
			</g>
		</g>
	</g>
	<rect x="-192" y="37.8" class="st2" width="107.9" height="107.9"/>
</g>
<g id="图层_2">
</g>
</svg>
