<?xml version="1.0" encoding="utf-8"?>
<!-- Generator: Adobe Illustrator 19.0.0, SVG Export Plug-In . SVG Version: 6.00 Build 0)  -->
<svg version="1.1" id="图层_1" xmlns="http://www.w3.org/2000/svg" xmlns:xlink="http://www.w3.org/1999/xlink" x="0px" y="0px"
	 viewBox="-42 165.7 510.2 510.2" style="enable-background:new -42 165.7 510.2 510.2;" xml:space="preserve">
<style type="text/css">
	.st0{display:none;}
	.st1{display:inline;}
	.st2{fill:none;stroke:#469B60;stroke-width:2;stroke-miterlimit:10;}
	.st3{fill:none;stroke:#469B60;stroke-width:2;stroke-miterlimit:10;stroke-dasharray:11.9577,3.9859;}
	.st4{fill:none;stroke:#469B60;stroke-width:4;stroke-miterlimit:10;stroke-dasharray:11.9577,3.9859;}
	.st5{opacity:0.72;fill:#56AE8B;enable-background:new    ;}
</style>
<g id="XMLID_1_" class="st0">
	<g id="XMLID_2_" class="st1">
		<g id="XMLID_234_">
			<polyline id="XMLID_242_" class="st2" points="-42,171.7 -42,165.7 -36,165.7 			"/>
			<line id="XMLID_241_" class="st3" x1="-32" y1="165.7" x2="460.2" y2="165.7"/>
			<polyline id="XMLID_240_" class="st2" points="462.2,165.7 468.2,165.7 468.2,171.7 			"/>
			<line id="XMLID_239_" class="st3" x1="468.2" y1="175.7" x2="468.2" y2="667.9"/>
			<polyline id="XMLID_238_" class="st2" points="468.2,669.9 468.2,675.9 462.2,675.9 			"/>
			<line id="XMLID_237_" class="st3" x1="458.3" y1="675.9" x2="-34" y2="675.9"/>
			<polyline id="XMLID_236_" class="st2" points="-36,675.9 -42,675.9 -42,669.9 			"/>
			<line id="XMLID_235_" class="st3" x1="-42" y1="666" x2="-42" y2="173.7"/>
		</g>
	</g>
	<g id="XMLID_3_" class="st1">
		<g id="XMLID_224_">
			<line id="XMLID_227_" class="st2" x1="-42" y1="649.1" x2="-36" y2="649.1"/>
			<line id="XMLID_226_" class="st3" x1="-32" y1="649.1" x2="460.2" y2="649.1"/>
			<line id="XMLID_225_" class="st2" x1="462.2" y1="649.1" x2="468.2" y2="649.1"/>
		</g>
	</g>
	<g id="XMLID_4_" class="st1">
		<g id="XMLID_219_">
			<line id="XMLID_222_" class="st2" x1="-42" y1="622.2" x2="-36" y2="622.2"/>
			<line id="XMLID_221_" class="st3" x1="-32" y1="622.2" x2="460.2" y2="622.2"/>
			<line id="XMLID_220_" class="st2" x1="462.2" y1="622.2" x2="468.2" y2="622.2"/>
		</g>
	</g>
	<g id="XMLID_5_" class="st1">
		<g id="XMLID_214_">
			<line id="XMLID_217_" class="st2" x1="-42" y1="595.4" x2="-36" y2="595.4"/>
			<line id="XMLID_216_" class="st3" x1="-32" y1="595.4" x2="460.2" y2="595.4"/>
			<line id="XMLID_215_" class="st2" x1="462.2" y1="595.4" x2="468.2" y2="595.4"/>
		</g>
	</g>
	<g id="XMLID_6_" class="st1">
		<g id="XMLID_209_">
			<line id="XMLID_212_" class="st2" x1="-42" y1="568.5" x2="-36" y2="568.5"/>
			<line id="XMLID_211_" class="st3" x1="-32" y1="568.5" x2="460.2" y2="568.5"/>
			<line id="XMLID_210_" class="st2" x1="462.2" y1="568.5" x2="468.2" y2="568.5"/>
		</g>
	</g>
	<g id="XMLID_7_" class="st1">
		<g id="XMLID_204_">
			<line id="XMLID_207_" class="st2" x1="-42" y1="541.7" x2="-36" y2="541.7"/>
			<line id="XMLID_206_" class="st3" x1="-32" y1="541.7" x2="460.2" y2="541.7"/>
			<line id="XMLID_205_" class="st2" x1="462.2" y1="541.7" x2="468.2" y2="541.7"/>
		</g>
	</g>
	<g id="XMLID_8_" class="st1">
		<g id="XMLID_199_">
			<line id="XMLID_202_" class="st2" x1="-42" y1="514.8" x2="-36" y2="514.8"/>
			<line id="XMLID_201_" class="st3" x1="-32" y1="514.8" x2="460.2" y2="514.8"/>
			<line id="XMLID_200_" class="st2" x1="462.2" y1="514.8" x2="468.2" y2="514.8"/>
		</g>
	</g>
	<g id="XMLID_9_" class="st1">
		<g id="XMLID_194_">
			<line id="XMLID_197_" class="st2" x1="-42" y1="488" x2="-36" y2="488"/>
			<line id="XMLID_196_" class="st3" x1="-32" y1="488" x2="460.2" y2="488"/>
			<line id="XMLID_195_" class="st2" x1="462.2" y1="488" x2="468.2" y2="488"/>
		</g>
	</g>
	<g id="XMLID_10_" class="st1">
		<g id="XMLID_189_">
			<line id="XMLID_192_" class="st2" x1="-42" y1="461.1" x2="-36" y2="461.1"/>
			<line id="XMLID_191_" class="st3" x1="-32" y1="461.1" x2="460.2" y2="461.1"/>
			<line id="XMLID_190_" class="st2" x1="462.2" y1="461.1" x2="468.2" y2="461.1"/>
		</g>
	</g>
	<g id="XMLID_11_" class="st1">
		<g id="XMLID_184_">
			<line id="XMLID_187_" class="st2" x1="-42" y1="434.2" x2="-36" y2="434.2"/>
			<line id="XMLID_186_" class="st3" x1="-32" y1="434.2" x2="460.2" y2="434.2"/>
			<line id="XMLID_185_" class="st2" x1="462.2" y1="434.2" x2="468.2" y2="434.2"/>
		</g>
	</g>
	<g id="XMLID_12_" class="st1">
		<g id="XMLID_179_">
			<line id="XMLID_182_" class="st2" x1="-42" y1="407.4" x2="-36" y2="407.4"/>
			<line id="XMLID_181_" class="st3" x1="-32" y1="407.4" x2="460.2" y2="407.4"/>
			<line id="XMLID_180_" class="st2" x1="462.2" y1="407.4" x2="468.2" y2="407.4"/>
		</g>
	</g>
	<g id="XMLID_13_" class="st1">
		<g id="XMLID_174_">
			<line id="XMLID_177_" class="st2" x1="-42" y1="380.5" x2="-36" y2="380.5"/>
			<line id="XMLID_176_" class="st3" x1="-32" y1="380.5" x2="460.2" y2="380.5"/>
			<line id="XMLID_175_" class="st2" x1="462.2" y1="380.5" x2="468.2" y2="380.5"/>
		</g>
	</g>
	<g id="XMLID_14_" class="st1">
		<g id="XMLID_169_">
			<line id="XMLID_172_" class="st2" x1="-42" y1="353.7" x2="-36" y2="353.7"/>
			<line id="XMLID_171_" class="st3" x1="-32" y1="353.7" x2="460.2" y2="353.7"/>
			<line id="XMLID_170_" class="st2" x1="462.2" y1="353.7" x2="468.2" y2="353.7"/>
		</g>
	</g>
	<g id="XMLID_15_" class="st1">
		<g id="XMLID_164_">
			<line id="XMLID_167_" class="st2" x1="-42" y1="326.8" x2="-36" y2="326.8"/>
			<line id="XMLID_166_" class="st3" x1="-32" y1="326.8" x2="460.2" y2="326.8"/>
			<line id="XMLID_165_" class="st2" x1="462.2" y1="326.8" x2="468.2" y2="326.8"/>
		</g>
	</g>
	<g id="XMLID_16_" class="st1">
		<g id="XMLID_159_">
			<line id="XMLID_162_" class="st2" x1="-42" y1="300" x2="-36" y2="300"/>
			<line id="XMLID_161_" class="st3" x1="-32" y1="300" x2="460.2" y2="300"/>
			<line id="XMLID_160_" class="st2" x1="462.2" y1="300" x2="468.2" y2="300"/>
		</g>
	</g>
	<g id="XMLID_17_" class="st1">
		<g id="XMLID_154_">
			<line id="XMLID_157_" class="st2" x1="-42" y1="273.1" x2="-36" y2="273.1"/>
			<line id="XMLID_156_" class="st3" x1="-32" y1="273.1" x2="460.2" y2="273.1"/>
			<line id="XMLID_155_" class="st2" x1="462.2" y1="273.1" x2="468.2" y2="273.1"/>
		</g>
	</g>
	<g id="XMLID_18_" class="st1">
		<g id="XMLID_149_">
			<line id="XMLID_152_" class="st2" x1="-42" y1="246.3" x2="-36" y2="246.3"/>
			<line id="XMLID_151_" class="st3" x1="-32" y1="246.3" x2="460.2" y2="246.3"/>
			<line id="XMLID_150_" class="st2" x1="462.2" y1="246.3" x2="468.2" y2="246.3"/>
		</g>
	</g>
	<g id="XMLID_19_" class="st1">
		<g id="XMLID_144_">
			<line id="XMLID_147_" class="st2" x1="-42" y1="219.4" x2="-36" y2="219.4"/>
			<line id="XMLID_146_" class="st3" x1="-32" y1="219.4" x2="460.2" y2="219.4"/>
			<line id="XMLID_145_" class="st2" x1="462.2" y1="219.4" x2="468.2" y2="219.4"/>
		</g>
	</g>
	<g id="XMLID_20_" class="st1">
		<g id="XMLID_139_">
			<line id="XMLID_142_" class="st2" x1="-42" y1="192.6" x2="-36" y2="192.6"/>
			<line id="XMLID_141_" class="st3" x1="-32" y1="192.6" x2="460.2" y2="192.6"/>
			<line id="XMLID_140_" class="st2" x1="462.2" y1="192.6" x2="468.2" y2="192.6"/>
		</g>
	</g>
	<g id="XMLID_21_" class="st1">
		<g id="XMLID_134_">
			<line id="XMLID_137_" class="st2" x1="441.4" y1="165.7" x2="441.4" y2="171.7"/>
			<line id="XMLID_136_" class="st3" x1="441.4" y1="175.7" x2="441.4" y2="667.9"/>
			<line id="XMLID_135_" class="st2" x1="441.4" y1="669.9" x2="441.4" y2="675.9"/>
		</g>
	</g>
	<g id="XMLID_22_" class="st1">
		<g id="XMLID_129_">
			<line id="XMLID_132_" class="st2" x1="414.5" y1="165.7" x2="414.5" y2="171.7"/>
			<line id="XMLID_131_" class="st3" x1="414.5" y1="175.7" x2="414.5" y2="667.9"/>
			<line id="XMLID_130_" class="st2" x1="414.5" y1="669.9" x2="414.5" y2="675.9"/>
		</g>
	</g>
	<g id="XMLID_23_" class="st1">
		<g id="XMLID_124_">
			<line id="XMLID_127_" class="st2" x1="387.7" y1="165.7" x2="387.7" y2="171.7"/>
			<line id="XMLID_126_" class="st3" x1="387.7" y1="175.7" x2="387.7" y2="667.9"/>
			<line id="XMLID_125_" class="st2" x1="387.7" y1="669.9" x2="387.7" y2="675.9"/>
		</g>
	</g>
	<g id="XMLID_24_" class="st1">
		<g id="XMLID_119_">
			<line id="XMLID_122_" class="st2" x1="360.8" y1="165.7" x2="360.8" y2="171.7"/>
			<line id="XMLID_121_" class="st3" x1="360.8" y1="175.7" x2="360.8" y2="667.9"/>
			<line id="XMLID_120_" class="st2" x1="360.8" y1="669.9" x2="360.8" y2="675.9"/>
		</g>
	</g>
	<g id="XMLID_25_" class="st1">
		<g id="XMLID_114_">
			<line id="XMLID_117_" class="st2" x1="334" y1="165.7" x2="334" y2="171.7"/>
			<line id="XMLID_116_" class="st3" x1="334" y1="175.7" x2="334" y2="667.9"/>
			<line id="XMLID_115_" class="st2" x1="334" y1="669.9" x2="334" y2="675.9"/>
		</g>
	</g>
	<g id="XMLID_26_" class="st1">
		<g id="XMLID_109_">
			<line id="XMLID_112_" class="st2" x1="307.1" y1="165.7" x2="307.1" y2="171.7"/>
			<line id="XMLID_111_" class="st3" x1="307.1" y1="175.7" x2="307.1" y2="667.9"/>
			<line id="XMLID_110_" class="st2" x1="307.1" y1="669.9" x2="307.1" y2="675.9"/>
		</g>
	</g>
	<g id="XMLID_27_" class="st1">
		<g id="XMLID_104_">
			<line id="XMLID_107_" class="st2" x1="280.3" y1="165.7" x2="280.3" y2="171.7"/>
			<line id="XMLID_106_" class="st3" x1="280.3" y1="175.7" x2="280.3" y2="667.9"/>
			<line id="XMLID_105_" class="st2" x1="280.3" y1="669.9" x2="280.3" y2="675.9"/>
		</g>
	</g>
	<g id="XMLID_28_" class="st1">
		<g id="XMLID_99_">
			<line id="XMLID_102_" class="st2" x1="253.4" y1="165.7" x2="253.4" y2="171.7"/>
			<line id="XMLID_101_" class="st3" x1="253.4" y1="175.7" x2="253.4" y2="667.9"/>
			<line id="XMLID_100_" class="st2" x1="253.4" y1="669.9" x2="253.4" y2="675.9"/>
		</g>
	</g>
	<g id="XMLID_29_" class="st1">
		<g id="XMLID_94_">
			<line id="XMLID_97_" class="st2" x1="226.5" y1="165.7" x2="226.5" y2="171.7"/>
			<line id="XMLID_96_" class="st3" x1="226.5" y1="175.7" x2="226.5" y2="667.9"/>
			<line id="XMLID_95_" class="st2" x1="226.5" y1="669.9" x2="226.5" y2="675.9"/>
		</g>
	</g>
	<g id="XMLID_30_" class="st1">
		<g id="XMLID_89_">
			<line id="XMLID_92_" class="st2" x1="199.7" y1="165.7" x2="199.7" y2="171.7"/>
			<line id="XMLID_91_" class="st3" x1="199.7" y1="175.7" x2="199.7" y2="667.9"/>
			<line id="XMLID_90_" class="st2" x1="199.7" y1="669.9" x2="199.7" y2="675.9"/>
		</g>
	</g>
	<g id="XMLID_31_" class="st1">
		<g id="XMLID_84_">
			<line id="XMLID_87_" class="st2" x1="172.8" y1="165.7" x2="172.8" y2="171.7"/>
			<line id="XMLID_86_" class="st3" x1="172.8" y1="175.7" x2="172.8" y2="667.9"/>
			<line id="XMLID_85_" class="st2" x1="172.8" y1="669.9" x2="172.8" y2="675.9"/>
		</g>
	</g>
	<g id="XMLID_32_" class="st1">
		<g id="XMLID_79_">
			<line id="XMLID_82_" class="st2" x1="146" y1="165.7" x2="146" y2="171.7"/>
			<line id="XMLID_81_" class="st3" x1="146" y1="175.7" x2="146" y2="667.9"/>
			<line id="XMLID_80_" class="st2" x1="146" y1="669.9" x2="146" y2="675.9"/>
		</g>
	</g>
	<g id="XMLID_33_" class="st1">
		<g id="XMLID_74_">
			<line id="XMLID_77_" class="st2" x1="119.1" y1="165.7" x2="119.1" y2="171.7"/>
			<line id="XMLID_76_" class="st3" x1="119.1" y1="175.7" x2="119.1" y2="667.9"/>
			<line id="XMLID_75_" class="st2" x1="119.1" y1="669.9" x2="119.1" y2="675.9"/>
		</g>
	</g>
	<g id="XMLID_34_" class="st1">
		<g id="XMLID_69_">
			<line id="XMLID_72_" class="st2" x1="92.3" y1="165.7" x2="92.3" y2="171.7"/>
			<line id="XMLID_71_" class="st3" x1="92.3" y1="175.7" x2="92.3" y2="667.9"/>
			<line id="XMLID_70_" class="st2" x1="92.3" y1="669.9" x2="92.3" y2="675.9"/>
		</g>
	</g>
	<g id="XMLID_35_" class="st1">
		<g id="XMLID_64_">
			<line id="XMLID_67_" class="st2" x1="65.4" y1="165.7" x2="65.4" y2="171.7"/>
			<line id="XMLID_66_" class="st3" x1="65.4" y1="175.7" x2="65.4" y2="667.9"/>
			<line id="XMLID_65_" class="st2" x1="65.4" y1="669.9" x2="65.4" y2="675.9"/>
		</g>
	</g>
	<g id="XMLID_36_" class="st1">
		<g id="XMLID_59_">
			<line id="XMLID_62_" class="st2" x1="38.6" y1="165.7" x2="38.6" y2="171.7"/>
			<line id="XMLID_61_" class="st3" x1="38.6" y1="175.7" x2="38.6" y2="667.9"/>
			<line id="XMLID_60_" class="st2" x1="38.6" y1="669.9" x2="38.6" y2="675.9"/>
		</g>
	</g>
	<g id="XMLID_37_" class="st1">
		<g id="XMLID_54_">
			<line id="XMLID_57_" class="st2" x1="11.7" y1="165.7" x2="11.7" y2="171.7"/>
			<line id="XMLID_56_" class="st3" x1="11.7" y1="175.7" x2="11.7" y2="667.9"/>
			<line id="XMLID_55_" class="st2" x1="11.7" y1="669.9" x2="11.7" y2="675.9"/>
		</g>
	</g>
	<g id="XMLID_38_" class="st1">
		<g id="XMLID_49_">
			<line id="XMLID_52_" class="st2" x1="-15.1" y1="165.7" x2="-15.1" y2="171.7"/>
			<line id="XMLID_51_" class="st3" x1="-15.1" y1="175.7" x2="-15.1" y2="667.9"/>
			<line id="XMLID_50_" class="st2" x1="-15.1" y1="669.9" x2="-15.1" y2="675.9"/>
		</g>
	</g>
</g>
<g>
	<rect x="-42" y="165.7" class="st4" width="510.2" height="510.2"/>
	<line class="st4" x1="-42" y1="624.9" x2="468.2" y2="624.9"/>
	<line class="st4" x1="-42" y1="573.9" x2="468.2" y2="573.9"/>
	<line class="st4" x1="-42" y1="522.8" x2="468.2" y2="522.8"/>
	<line class="st4" x1="-42" y1="471.8" x2="468.2" y2="471.8"/>
	<line class="st4" x1="-42" y1="420.8" x2="468.2" y2="420.8"/>
	<line class="st4" x1="-42" y1="369.8" x2="468.2" y2="369.8"/>
	<line class="st4" x1="-42" y1="318.7" x2="468.2" y2="318.7"/>
	<line class="st4" x1="-42" y1="267.7" x2="468.2" y2="267.7"/>
	<line class="st4" x1="-42" y1="216.7" x2="468.2" y2="216.7"/>
	<line class="st4" x1="417.2" y1="165.7" x2="417.2" y2="675.9"/>
	<line class="st4" x1="366.2" y1="165.7" x2="366.2" y2="675.9"/>
	<line class="st4" x1="315.1" y1="165.7" x2="315.1" y2="675.9"/>
	<line class="st4" x1="264.1" y1="165.7" x2="264.1" y2="675.9"/>
	<line class="st4" x1="213.1" y1="165.7" x2="213.1" y2="675.9"/>
	<line class="st4" x1="162.1" y1="165.7" x2="162.1" y2="675.9"/>
	<line class="st4" x1="111.1" y1="165.7" x2="111.1" y2="675.9"/>
	<line class="st4" x1="60" y1="165.7" x2="60" y2="675.9"/>
	<line class="st4" x1="9" y1="165.7" x2="9" y2="675.9"/>
</g>
<rect id="XMLID_39_" x="-42" y="165.7" class="st5" width="510.2" height="510.2"/>
</svg>
